<svg width="48" height="48" viewBox="0 0 48 48" fill="none" xmlns="http://www.w3.org/2000/svg">
<path fill-rule="evenodd" clip-rule="evenodd" d="M0 24C0 37.2548 10.7452 48 24 48C37.2548 48 48 37.2548 48 24C48 10.7452 37.2548 0 24 0C10.7452 0 0 10.7452 0 24ZM28.7884 14.3043C32.062 15.4319 34.4561 17.1222 33.9857 20.2666C33.6453 22.5684 32.3692 23.6827 30.6752 24.0734C33.0013 25.2845 34.1851 27.1417 33.0574 30.3614C31.6581 34.3601 28.3335 34.6976 23.9123 33.8609L22.8393 38.161L20.2466 37.5149L21.3056 33.2724C20.6336 33.1055 19.9468 32.9283 19.2393 32.7363L18.1767 36.9987L15.5869 36.3525L16.6599 32.0443C16.4178 31.9823 16.1742 31.9188 15.9289 31.8548C15.5605 31.7588 15.1883 31.6617 14.8115 31.5673L11.4375 30.7262L12.7246 27.7583C12.7246 27.7583 14.635 28.2664 14.6092 28.2287C15.3432 28.4104 15.6689 27.9318 15.7974 27.6128L17.4929 20.8153C17.5565 20.8306 17.6189 20.8462 17.679 20.8613C17.7089 20.8688 17.7382 20.8761 17.7669 20.8832C17.6635 20.8419 17.5697 20.8153 17.4973 20.7968L18.7069 15.9444C18.7387 15.3935 18.5489 14.6986 17.4988 14.4365C17.5394 14.4091 15.6157 13.9683 15.6157 13.9683L16.3054 11.199L19.8811 12.0918L19.8781 12.1051C20.4157 12.2388 20.9696 12.3658 21.5337 12.4943L22.5964 8.23633L25.1877 8.88248L24.1464 13.057C24.8421 13.2158 25.5421 13.376 26.2237 13.5459L27.2576 9.39867L29.8503 10.0448L28.7884 14.3043Z" fill="url(#paint0_linear_550_13288)"/>
<path d="M28.863 20.2179C28.1319 23.1466 23.6199 21.6586 22.1562 21.2938L23.4471 16.1172C24.9107 16.482 29.6243 17.1628 28.863 20.2179Z" fill="url(#paint1_linear_550_13288)"/>
<path d="M28.0579 28.5711C27.2567 31.7908 21.8357 30.0503 20.0781 29.6138L21.5019 23.9062C23.2594 24.3449 28.8954 25.2133 28.0579 28.5711Z" fill="url(#paint2_linear_550_13288)"/>
<defs>
<linearGradient id="paint0_linear_550_13288" x1="0" y1="0" x2="47.1707" y2="-0.801615" gradientUnits="userSpaceOnUse">
<stop stop-color="#8538FF"/>
<stop offset="1" stop-color="#C203FF"/>
</linearGradient>
<linearGradient id="paint1_linear_550_13288" x1="22.1562" y1="16.1172" x2="28.8276" y2="15.9862" gradientUnits="userSpaceOnUse">
<stop stop-color="#8538FF"/>
<stop offset="1" stop-color="#C203FF"/>
</linearGradient>
<linearGradient id="paint2_linear_550_13288" x1="20.0781" y1="23.9062" x2="28.0017" y2="23.741" gradientUnits="userSpaceOnUse">
<stop stop-color="#8538FF"/>
<stop offset="1" stop-color="#C203FF"/>
</linearGradient>
</defs>
</svg>
