<svg width="26" height="26" viewBox="0 0 26 26" fill="none" xmlns="http://www.w3.org/2000/svg">
<g id="Iconly/Bold/Calendar">
<g id="Calendar">
<path id="Calendar_2" fill-rule="evenodd" clip-rule="evenodd" d="M17.7785 3.00064L17.7795 3.81273C20.7637 4.04661 22.735 6.0801 22.7382 9.19853L22.75 18.3265C22.7543 21.7264 20.6183 23.8184 17.1944 23.8238L8.83121 23.8346C5.42879 23.839 3.26605 21.6972 3.26177 18.2875L3.25001 9.26675C3.24573 6.12774 5.14749 4.09967 8.13169 3.82572L8.13062 3.01363C8.12955 2.5372 8.48252 2.1788 8.95314 2.1788C9.42377 2.17772 9.77674 2.53504 9.77781 3.01147L9.77888 3.76942L16.1323 3.76076L16.1313 3.0028C16.1302 2.52637 16.4832 2.16905 16.9538 2.16797C17.4137 2.16689 17.7774 2.52421 17.7785 3.00064ZM4.89951 9.60276L21.0933 9.58111V9.20213C21.0473 6.87413 19.8793 5.65274 17.7829 5.47083L17.784 6.30458C17.784 6.77018 17.4214 7.13941 16.9614 7.13941C16.4908 7.14049 16.1368 6.77235 16.1368 6.30675L16.1357 5.42969L9.78225 5.43835L9.78332 6.31433C9.78332 6.78101 9.43142 7.14916 8.9608 7.14916C8.49017 7.15024 8.13613 6.78317 8.13613 6.31649L8.13506 5.48274C6.04933 5.69172 4.89523 6.91744 4.89844 9.26601L4.89951 9.60276ZM16.5117 14.5228V14.5347C16.5224 15.0328 16.9289 15.4107 17.4219 15.3999C17.9033 15.388 18.2873 14.9754 18.2766 14.4773C18.2541 14.0009 17.868 13.6122 17.3877 13.6133C16.8957 13.6241 16.5106 14.0247 16.5117 14.5228ZM17.394 19.3848C16.902 19.374 16.5052 18.9636 16.5041 18.4655C16.4934 17.9674 16.8881 17.5549 17.3801 17.543H17.3908C17.8935 17.543 18.301 17.9533 18.301 18.4623C18.3021 18.9712 17.8957 19.3837 17.394 19.3848ZM12.1055 14.5417C12.1269 15.0397 12.5344 15.4285 13.0264 15.4068C13.5077 15.3841 13.8917 14.9726 13.8703 14.4745C13.8585 13.9873 13.4628 13.6083 12.9815 13.6094C12.4895 13.631 12.1044 14.0436 12.1055 14.5417ZM13.0303 19.3365C12.5383 19.3582 12.1318 18.9694 12.1094 18.4713C12.1094 17.9733 12.4934 17.5618 12.9854 17.5391C13.4667 17.538 13.8635 17.917 13.8742 18.4031C13.8967 18.9023 13.5116 19.3138 13.0303 19.3365ZM7.69921 14.5807C7.72061 15.0788 8.12813 15.4686 8.62014 15.4459C9.10147 15.4242 9.48546 15.0117 9.46299 14.5136C9.4523 14.0263 9.05654 13.6474 8.57415 13.6484C8.08213 13.6701 7.69814 14.0826 7.69921 14.5807ZM8.62014 19.3404C8.12813 19.3631 7.72168 18.9733 7.69921 18.4753C7.69814 17.9772 8.0832 17.5646 8.57522 17.543C9.05654 17.5419 9.45337 17.9209 9.46406 18.4081C9.48652 18.9062 9.10254 19.3187 8.62014 19.3404Z" fill="white"/>
</g>
</g>
</svg>
