<svg width="26" height="26" viewBox="0 0 26 26" fill="none" xmlns="http://www.w3.org/2000/svg">
<g id="Iconly/Bold/Location">
<g id="Location">
<path id="Location_2" fill-rule="evenodd" clip-rule="evenodd" d="M3.79688 11.1789C3.79688 6.19568 7.96108 2.16797 12.9981 2.16797C18.0493 2.16797 22.2135 6.19568 22.2135 11.1789C22.2135 13.69 21.3003 16.0212 19.7972 17.9972C18.1389 20.1768 16.095 22.0758 13.7945 23.5664C13.2679 23.9109 12.7927 23.9369 12.2149 23.5664C9.90117 22.0758 7.8573 20.1768 6.21325 17.9972C4.70902 16.0212 3.79688 13.69 3.79688 11.1789ZM9.96484 11.459C9.96484 13.1284 11.3271 14.4414 12.9973 14.4414C14.6687 14.4414 16.044 13.1284 16.044 11.459C16.044 9.80266 14.6687 8.42578 12.9973 8.42578C11.3271 8.42578 9.96484 9.80266 9.96484 11.459Z" fill="white"/>
</g>
</g>
</svg>
