<svg width="26" height="26" viewBox="0 0 26 26" fill="none" xmlns="http://www.w3.org/2000/svg">
<g id="Iconly/Bold/Star">
<g id="Star">
<path id="Star_2" d="M19.2454 14.805C18.9649 15.0769 18.8359 15.4702 18.8999 15.8558L19.8629 21.1858C19.9442 21.6376 19.7535 22.0948 19.3755 22.3558C19.0049 22.6267 18.512 22.6592 18.1079 22.4425L13.3099 19.94C13.143 19.8512 12.9578 19.8035 12.7682 19.7981H12.4746C12.3728 19.8133 12.2731 19.8457 12.1821 19.8956L7.38295 22.41C7.1457 22.5292 6.87703 22.5714 6.61378 22.5292C5.97245 22.4078 5.54453 21.7968 5.64962 21.1523L6.61378 15.8223C6.6777 15.4333 6.54878 15.0379 6.2682 14.7617L2.35628 10.97C2.02912 10.6526 1.91537 10.1759 2.06487 9.74583C2.21003 9.31683 2.58053 9.00375 3.02795 8.93333L8.41212 8.15225C8.82162 8.11 9.18128 7.86083 9.36545 7.4925L11.7379 2.62833C11.7943 2.52 11.8669 2.42033 11.9546 2.33583L12.0521 2.26C12.103 2.20367 12.1615 2.15708 12.2265 2.11917L12.3446 2.07583L12.5288 2H12.9849C13.3922 2.04225 13.7508 2.286 13.9382 2.65L16.3421 7.4925C16.5154 7.84675 16.8524 8.09267 17.2413 8.15225L22.6255 8.93333C23.0805 8.99833 23.4607 9.3125 23.6113 9.74583C23.7532 10.1803 23.6308 10.6569 23.2971 10.97L19.2454 14.805Z" fill="white"/>
</g>
</g>
</svg>
