<svg width="26" height="26" viewBox="0 0 26 26" fill="none" xmlns="http://www.w3.org/2000/svg">
<g id="Iconly/Bold/Time Circle">
<g id="Time Circle">
<path id="Time Circle_2" fill-rule="evenodd" clip-rule="evenodd" d="M13.0052 23.8346C7.02521 23.8346 2.17188 18.9921 2.17188 13.0013C2.17188 7.0213 7.02521 2.16797 13.0052 2.16797C18.996 2.16797 23.8385 7.0213 23.8385 13.0013C23.8385 18.9921 18.996 23.8346 13.0052 23.8346ZM16.46 17.0195C16.59 17.0953 16.7308 17.1386 16.8825 17.1386C17.1533 17.1386 17.4242 16.9978 17.5758 16.7378C17.8033 16.3586 17.6842 15.8603 17.2942 15.622L13.4375 13.3253V8.32031C13.4375 7.86531 13.0692 7.50781 12.625 7.50781C12.1808 7.50781 11.8125 7.86531 11.8125 8.32031V13.7911C11.8125 14.0728 11.9642 14.3328 12.2133 14.4845L16.46 17.0195Z" fill="white"/>
</g>
</g>
</svg>
