<svg width="55" height="55" viewBox="0 0 55 55" fill="none" xmlns="http://www.w3.org/2000/svg">
<path d="M41.6234 50.6683V45.7711C41.6234 43.1734 40.5915 40.6821 38.7546 38.8453C36.9178 37.0085 34.4265 35.9766 31.8289 35.9766H12.2398C9.64216 35.9766 7.15089 37.0085 5.31406 38.8453C3.47723 40.6821 2.44531 43.1734 2.44531 45.7711V50.6683" stroke="white" stroke-width="4" stroke-linecap="round" stroke-linejoin="round"/>
<path d="M22.0367 26.1828C27.4461 26.1828 31.8312 21.7976 31.8312 16.3883C31.8312 10.9789 27.4461 6.59375 22.0367 6.59375C16.6273 6.59375 12.2422 10.9789 12.2422 16.3883C12.2422 21.7976 16.6273 26.1828 22.0367 26.1828Z" stroke="white" stroke-width="4" stroke-linecap="round" stroke-linejoin="round"/>
<path d="M52.549 50.6664V45.7692C52.5474 43.599 51.8251 41.4909 50.4955 39.7757C49.1659 38.0605 47.3044 36.8355 45.2031 36.293" stroke="white" stroke-width="4" stroke-linecap="round" stroke-linejoin="round"/>
<path d="M35.4141 6.91016C37.5209 7.44959 39.3883 8.67489 40.7218 10.3929C42.0553 12.1109 42.7792 14.2238 42.7792 16.3986C42.7792 18.5734 42.0553 20.6863 40.7218 22.4043C39.3883 24.1223 37.5209 25.3476 35.4141 25.887" stroke="white" stroke-width="4" stroke-linecap="round" stroke-linejoin="round"/>
</svg>
