<svg width="30" height="30" viewBox="0 0 30 30" fill="none" xmlns="http://www.w3.org/2000/svg">
<path d="M22.4199 12.1402C22.4236 13.5334 22.0943 14.9078 21.459 16.1513C20.7056 17.6415 19.5475 18.8949 18.1143 19.7711C16.6811 20.6474 15.0295 21.1118 13.3444 21.1124C11.9352 21.1161 10.545 20.7906 9.28711 20.1624L3.20117 22.168L5.22982 16.1513C4.59446 14.9078 4.26521 13.5334 4.26888 12.1402C4.26953 10.4743 4.73933 8.84145 5.62564 7.42458C6.51195 6.00771 7.77978 4.86276 9.28711 4.118C10.545 3.48987 11.9352 3.16437 13.3444 3.168H13.8783C16.1037 3.28938 18.2057 4.21802 19.7818 5.77613C21.3578 7.33423 22.2971 9.4123 22.4199 11.6124V12.1402Z" stroke="white" stroke-width="2" stroke-linecap="round" stroke-linejoin="round"/>
<path d="M20.9356 6.79645C22.4641 7.49796 24.7315 9.11081 25.6588 10.5018C26.586 11.8929 27.1032 13.5117 27.1525 15.1769C27.1967 16.5694 26.9077 17.9525 26.3089 19.2137L28.512 25.1701L22.3702 23.3387C21.1311 24.0024 19.751 24.3674 18.3423 24.4039C16.6578 24.4513 14.9933 24.0341 13.5352 23.1991C12.0771 22.3641 11.4208 22.1667 10.6244 20.6986" stroke="white" stroke-width="2" stroke-linecap="round" stroke-linejoin="round"/>
</svg>
