<svg width="24" height="24" viewBox="0 0 24 24" fill="none" xmlns="http://www.w3.org/2000/svg">
<g id="Iconly/Bold/Send">
<g id="Send">
<path id="Send_2" d="M23.7415 12.0138C23.7508 11.2971 23.3626 10.6384 22.7321 10.2926L8.04027 2.22047C7.38221 1.84856 6.60649 1.89425 5.98641 2.31767C5.35496 2.74822 5.03175 3.77317 5.20827 4.51343L6.57982 10.2597C6.72062 10.8489 7.24798 11.2638 7.85469 11.2612L16.0307 11.2359C16.4494 11.2275 16.7889 11.567 16.7805 11.9857C16.7792 12.3973 16.4447 12.7318 16.026 12.7402L7.84224 12.7592C7.23553 12.7604 6.70559 13.1771 6.56114 13.7673L5.14108 19.5364C4.96867 20.2181 5.16524 20.8987 5.64627 21.3798C5.70286 21.4364 5.76653 21.5 5.83024 21.5495C6.45319 22.0301 7.26903 22.0914 7.96558 21.7203L22.7073 13.7271C23.3399 13.3916 23.7322 12.7305 23.7415 12.0138Z" fill="#130F26"/>
</g>
</g>
</svg>
