<svg width="20" height="20" viewBox="0 0 20 20" fill="none" xmlns="http://www.w3.org/2000/svg">
<path fill-rule="evenodd" clip-rule="evenodd" d="M7.11099 2.44763C8.9317 1.38972 11.1697 1.40821 12.9733 2.49607C14.7592 3.60609 15.8446 5.58714 15.8345 7.7182C15.7929 9.83527 14.629 11.8253 13.1742 13.3637C12.3345 14.2557 11.3951 15.0444 10.3753 15.7137C10.2703 15.7744 10.1553 15.8151 10.0359 15.8337C9.92097 15.8288 9.80907 15.7948 9.71026 15.7349C8.15332 14.7291 6.78741 13.4454 5.67825 11.9453C4.75013 10.6931 4.22283 9.18033 4.16797 7.61234C4.16676 5.4772 5.29027 3.50555 7.11099 2.44763ZM8.16311 8.49598C8.46937 9.25102 9.19229 9.74353 9.99431 9.74353C10.5197 9.7473 11.0248 9.53685 11.397 9.15906C11.7692 8.78126 11.9775 8.26752 11.9757 7.73231C11.9785 6.91535 11.4975 6.17725 10.7574 5.86264C10.0172 5.54802 9.16384 5.71895 8.59573 6.29562C8.02763 6.87228 7.85684 7.74093 8.16311 8.49598Z" fill="url(#paint0_linear_243_1378)"/>
<ellipse opacity="0.4" cx="10.0026" cy="17.5003" rx="4.16667" ry="0.833333" fill="url(#paint1_linear_243_1378)"/>
<defs>
<linearGradient id="paint0_linear_243_1378" x1="4.16797" y1="1.66699" x2="15.6341" y2="1.50652" gradientUnits="userSpaceOnUse">
<stop stop-color="#8538FF"/>
<stop offset="1" stop-color="#C203FF"/>
</linearGradient>
<linearGradient id="paint1_linear_243_1378" x1="5.83594" y1="16.667" x2="13.9689" y2="15.9759" gradientUnits="userSpaceOnUse">
<stop stop-color="#8538FF"/>
<stop offset="1" stop-color="#C203FF"/>
</linearGradient>
</defs>
</svg>
