<svg width="20" height="20" viewBox="0 0 20 20" fill="none" xmlns="http://www.w3.org/2000/svg">
<path opacity="0.4" d="M18.3346 13.2837C18.3346 15.6087 16.468 17.492 14.143 17.5003H14.1346H5.8763C3.55964 17.5003 1.66797 15.6253 1.66797 13.3003V13.292C1.66797 13.292 1.67297 9.60366 1.67964 7.74866C1.68047 7.40033 2.08047 7.20533 2.35297 7.42199C4.33297 8.99283 7.8738 11.857 7.91797 11.8945C8.50964 12.3687 9.25963 12.6362 10.0263 12.6362C10.793 12.6362 11.543 12.3687 12.1346 11.8853C12.1788 11.8562 15.6405 9.07783 17.6505 7.48116C17.9238 7.26366 18.3255 7.45866 18.3263 7.80616C18.3346 9.64699 18.3346 13.2837 18.3346 13.2837Z" fill="url(#paint0_linear_243_1381)"/>
<path d="M17.8967 4.72833C17.1751 3.36833 15.7551 2.5 14.1917 2.5H5.87507C4.31173 2.5 2.89173 3.36833 2.17007 4.72833C2.0084 5.0325 2.08507 5.41167 2.35423 5.62667L8.54173 10.5758C8.97507 10.9258 9.50007 11.1 10.0251 11.1C10.0284 11.1 10.0309 11.1 10.0334 11.1C10.0359 11.1 10.0392 11.1 10.0417 11.1C10.5667 11.1 11.0917 10.9258 11.5251 10.5758L17.7126 5.62667C17.9817 5.41167 18.0584 5.0325 17.8967 4.72833Z" fill="url(#paint1_linear_243_1381)"/>
<defs>
<linearGradient id="paint0_linear_243_1381" x1="1.66797" y1="7.33105" x2="18.0387" y2="6.8751" gradientUnits="userSpaceOnUse">
<stop stop-color="#8538FF"/>
<stop offset="1" stop-color="#C203FF"/>
</linearGradient>
<linearGradient id="paint1_linear_243_1381" x1="2.08594" y1="2.5" x2="17.6953" y2="2.00972" gradientUnits="userSpaceOnUse">
<stop stop-color="#8538FF"/>
<stop offset="1" stop-color="#C203FF"/>
</linearGradient>
</defs>
</svg>
