<svg width="20" height="20" viewBox="0 0 20 20" fill="none" xmlns="http://www.w3.org/2000/svg">
<path opacity="0.4" d="M12.0139 4.57512C11.6172 4.50184 11.2529 4.755 11.1774 5.14224C11.1018 5.52947 11.3558 5.90754 11.7417 5.98332C12.9036 6.20984 13.8007 7.10922 14.0281 8.27508V8.27592C14.0929 8.61152 14.3883 8.85552 14.7286 8.85552C14.7742 8.85552 14.8199 8.85136 14.8663 8.84303C15.2523 8.76558 15.5062 8.38834 15.4307 8.00027C15.0913 6.25897 13.7509 4.91406 12.0139 4.57512Z" fill="url(#paint0_linear_243_1380)"/>
<path opacity="0.4" d="M11.9626 1.6736C11.7767 1.64695 11.5899 1.70191 11.4414 1.82017C11.2887 1.94008 11.1932 2.1133 11.1725 2.30733C11.1285 2.69956 11.4115 3.05432 11.8032 3.09846C14.5046 3.39991 16.6043 5.5043 16.908 8.21411C16.9487 8.57719 17.2533 8.85117 17.6168 8.85117C17.6442 8.85117 17.6707 8.84951 17.6981 8.84617C17.8882 8.82536 18.0575 8.73125 18.177 8.58136C18.2957 8.43146 18.3496 8.24492 18.328 8.05422C17.9496 4.67321 15.3329 2.04918 11.9626 1.6736Z" fill="url(#paint1_linear_243_1380)"/>
<path fill-rule="evenodd" clip-rule="evenodd" d="M9.19442 10.8103C12.5187 14.1336 13.2728 10.2889 15.3893 12.404C17.4299 14.444 18.6027 14.8527 16.0173 17.4373C15.6935 17.6975 13.636 20.8285 6.40514 13.5997C-0.826596 6.37 2.30262 4.31037 2.56294 3.98662C5.15452 1.39487 5.55619 2.57449 7.59671 4.61444C9.71327 6.73041 5.87018 7.48701 9.19442 10.8103Z" fill="url(#paint2_linear_243_1380)"/>
<defs>
<linearGradient id="paint0_linear_243_1380" x1="11.1641" y1="4.5625" x2="15.37" y2="4.49124" gradientUnits="userSpaceOnUse">
<stop stop-color="#8538FF"/>
<stop offset="1" stop-color="#C203FF"/>
</linearGradient>
<linearGradient id="paint1_linear_243_1380" x1="11.168" y1="1.66699" x2="18.2089" y2="1.54766" gradientUnits="userSpaceOnUse">
<stop stop-color="#8538FF"/>
<stop offset="1" stop-color="#C203FF"/>
</linearGradient>
<linearGradient id="paint2_linear_243_1380" x1="1.66797" y1="2.5" x2="17.2277" y2="2.23558" gradientUnits="userSpaceOnUse">
<stop stop-color="#8538FF"/>
<stop offset="1" stop-color="#C203FF"/>
</linearGradient>
</defs>
</svg>
