<svg width="20" height="20" viewBox="0 0 20 20" fill="none" xmlns="http://www.w3.org/2000/svg">
<path d="M17.8536 2.14793C17.4369 1.7221 16.8202 1.5646 16.2452 1.73126L2.83691 5.60543C2.23025 5.77376 1.80025 6.2546 1.68441 6.8646C1.56608 7.48626 1.97941 8.27626 2.51941 8.60626L6.71191 11.1663C7.14191 11.4296 7.69691 11.3638 8.05275 11.0071L12.8536 6.20626C13.0952 5.95543 13.4952 5.95543 13.7369 6.20626C13.9786 6.4471 13.9786 6.8396 13.7369 7.0896L8.92775 11.8904C8.57108 12.2471 8.50441 12.8004 8.76691 13.2313L11.3286 17.4396C11.6286 17.9388 12.1452 18.2229 12.7119 18.2229C12.7786 18.2229 12.8536 18.2229 12.9202 18.2138C13.5702 18.1313 14.0869 17.6888 14.2786 17.0638L18.2536 3.75626C18.4286 3.1896 18.2702 2.57293 17.8536 2.14793Z" fill="url(#paint0_linear_243_1383)"/>
<path opacity="0.4" fill-rule="evenodd" clip-rule="evenodd" d="M2.5076 14.0066C2.3476 14.0066 2.1876 13.9458 2.06594 13.8233C1.82177 13.5791 1.82177 13.1841 2.06594 12.94L3.20344 11.8016C3.4476 11.5583 3.84344 11.5583 4.0876 11.8016C4.33094 12.0458 4.33094 12.4416 4.0876 12.6858L2.94927 13.8233C2.8276 13.9458 2.6676 14.0066 2.5076 14.0066ZM5.64237 15.0008C5.48237 15.0008 5.32237 14.9399 5.2007 14.8174C4.95654 14.5733 4.95654 14.1783 5.2007 13.9341L6.3382 12.7958C6.58237 12.5524 6.9782 12.5524 7.22237 12.7958C7.4657 13.0399 7.4657 13.4358 7.22237 13.6799L6.08404 14.8174C5.96237 14.9399 5.80237 15.0008 5.64237 15.0008ZM5.85305 17.9737C5.97471 18.0962 6.13471 18.157 6.29471 18.157C6.45471 18.157 6.61471 18.0962 6.73638 17.9737L7.87471 16.8362C8.11805 16.592 8.11805 16.1962 7.87471 15.952C7.63055 15.7087 7.23471 15.7087 6.99055 15.952L5.85305 17.0904C5.60888 17.3345 5.60888 17.7295 5.85305 17.9737Z" fill="url(#paint1_linear_243_1383)"/>
<defs>
<linearGradient id="paint0_linear_243_1383" x1="1.66406" y1="1.66602" x2="18.036" y2="1.38606" gradientUnits="userSpaceOnUse">
<stop stop-color="#8538FF"/>
<stop offset="1" stop-color="#C203FF"/>
</linearGradient>
<linearGradient id="paint1_linear_243_1383" x1="1.88281" y1="11.6191" x2="7.95072" y2="11.5218" gradientUnits="userSpaceOnUse">
<stop stop-color="#8538FF"/>
<stop offset="1" stop-color="#C203FF"/>
</linearGradient>
</defs>
</svg>
