<svg width="25" height="25" viewBox="0 0 25 25" fill="none" xmlns="http://www.w3.org/2000/svg">
<path fill-rule="evenodd" clip-rule="evenodd" d="M12.5 25C5.59644 25 0 19.4036 0 12.5C0 5.59644 5.59644 0 12.5 0C19.4036 0 25 5.59644 25 12.5C25 19.4036 19.4036 25 12.5 25ZM12.6755 11.7984C13.699 11.7984 18.6755 9 18.6755 9L18.6835 8.5C18.6835 7.948 18.2355 7.5 17.682 7.5H7.66897C7.11597 7.5 6.66797 7.948 6.66797 8.5V8.9455C6.66797 8.9455 11.699 11.7984 12.6755 11.7984ZM6.67597 10.502C6.67547 10.502 11.699 13.1754 12.6755 13.1754C13.746 13.1754 18.6755 10.502 18.6755 10.502L18.6835 16.502C18.6835 17.054 18.2355 17.502 17.682 17.502H7.66897C7.11647 17.502 6.66797 17.054 6.66797 16.502L6.67597 10.502Z" fill="white"/>
</svg>
