<svg width="25" height="25" viewBox="0 0 25 25" fill="none" xmlns="http://www.w3.org/2000/svg">
<path fill-rule="evenodd" clip-rule="evenodd" d="M12.5 0C19.4036 0 25 5.59644 25 12.5C25 19.4036 19.4036 25 12.5 25C5.59644 25 0 19.4036 0 12.5C0 5.59644 5.59644 0 12.5 0ZM15.8322 10.9167C15.7714 10.4228 15.6196 10.035 15.35 9.69148C14.9999 9.24915 14.5525 8.98428 13.8902 8.82715C13.4585 8.72243 13.2842 8.73445 13.128 8.87705C12.9826 9.01065 12.9542 9.27848 13.0654 9.45192C13.1435 9.57781 13.2337 9.62291 13.4844 9.67212C13.8183 9.73356 14.0491 9.81329 14.259 9.93332C14.7045 10.1906 14.912 10.5931 14.9342 11.2449C14.9446 11.5509 14.971 11.645 15.0779 11.7535C15.276 11.9519 15.6286 11.9133 15.7781 11.6759C15.833 11.5864 15.8414 11.5475 15.8472 11.3397C15.851 11.211 15.8455 11.0196 15.8322 10.9167ZM15.8356 7.88533C16.8949 8.7419 17.4868 9.95935 17.5748 11.4726C17.6118 12.0686 17.5626 12.2627 17.3523 12.3733C17.1626 12.4757 16.9476 12.442 16.8001 12.2877C16.7024 12.1874 16.6649 12.0502 16.6663 11.8073C16.6706 11.1355 16.5159 10.3853 16.2642 9.86479C15.973 9.25895 15.5228 8.74338 14.9565 8.36644C14.4605 8.03537 13.804 7.81175 13.1674 7.75606C12.7546 7.71994 12.6071 7.65001 12.5279 7.45208C12.4788 7.33368 12.4918 7.12899 12.5493 7.03731C12.6037 6.95277 12.7258 6.85928 12.8122 6.83457C12.9037 6.80788 13.437 6.85454 13.7267 6.9121C14.5174 7.07306 15.2388 7.40402 15.8356 7.88533ZM19.5033 17.2998C19.4737 17.2133 19.4047 17.0799 19.3553 17.0033C19.0445 16.5339 17.3743 15.2268 16.5404 14.7993C16.0643 14.5548 15.7115 14.4732 15.45 14.5498C15.1688 14.6289 15.0208 14.7598 14.5496 15.3454C14.3596 15.5801 14.1647 15.8 14.1129 15.8346C13.9846 15.9236 13.733 15.9952 13.5554 15.9952C13.1434 15.9927 12.3959 15.7259 11.821 15.375C11.3745 15.1033 10.8022 14.6165 10.363 14.1347C9.84493 13.5689 9.49219 13.0698 9.21338 12.5065C8.85322 11.7826 8.76194 11.3403 8.91241 11.0166C8.94942 10.9351 8.99877 10.8486 9.02094 10.8214C9.04316 10.7967 9.27507 10.6065 9.53162 10.3989C10.0349 9.99868 10.1163 9.90726 10.2101 9.63301C10.3285 9.28461 10.2964 8.92883 10.1139 8.57058C9.97322 8.29878 9.60564 7.70581 9.33921 7.32285C8.98643 6.81883 8.10816 5.74158 7.93298 5.59576C7.61721 5.33883 7.21265 5.29433 6.76608 5.46732C6.29492 5.65016 5.4117 6.36173 5.03423 6.85836C4.69378 7.30803 4.56307 7.62674 4.54332 8.04677C4.52606 8.39266 4.55565 8.53597 4.73822 8.97825C6.16662 12.4472 8.2981 15.2169 11.2265 17.4159C12.756 18.5648 14.3423 19.4395 15.9878 20.0374C16.9475 20.3858 17.3644 20.403 17.8554 20.1165C18.0626 19.9929 18.5757 19.4666 18.8619 19.0837C19.3356 18.4462 19.5107 18.1522 19.5601 17.9175C19.5946 17.7569 19.5675 17.4777 19.5033 17.2998ZM18.8752 9.47634C19.1757 10.2591 19.3198 10.9612 19.3514 11.8172C19.3564 11.9863 19.3541 12.2961 19.3431 12.5059C19.3203 12.9082 19.2985 12.9881 19.1827 13.0946C18.9965 13.2693 18.6337 13.2276 18.4961 13.0171C18.4242 12.9042 18.4141 12.8215 18.428 12.3514C18.4679 10.9611 18.1867 9.87248 17.5093 8.78395C16.6999 7.47798 15.4891 6.59821 13.9146 6.16781C13.5131 6.05826 13.1747 5.99149 12.6484 5.92064C12.3056 5.87577 12.2306 5.8568 12.146 5.80473C11.8904 5.64103 11.887 5.22651 12.1418 5.06032C12.2732 4.97259 12.3702 4.96867 12.7988 5.02355C14.0554 5.18059 15.1768 5.55401 16.0982 6.11827C16.7586 6.52327 17.175 6.88709 17.7112 7.52429C18.2782 8.20389 18.5785 8.70634 18.8752 9.47634Z" fill="white"/>
</svg>
