<svg width="25" height="25" viewBox="0 0 25 25" fill="none" xmlns="http://www.w3.org/2000/svg">
<path fill-rule="evenodd" clip-rule="evenodd" d="M0 12.5C0 19.4036 5.59644 25 12.5 25C19.4036 25 25 19.4036 25 12.5C25 5.59644 19.4036 0 12.5 0C5.59644 0 0 5.59644 0 12.5ZM10.2103 18.226L10.423 15.0397L10.4228 15.0396L16.2191 9.80883C16.4735 9.58306 16.1635 9.47296 15.8258 9.67774L8.67241 14.1908L5.58251 13.2264C4.91523 13.022 4.91044 12.5635 5.73233 12.2339L17.773 7.59105C18.3229 7.34138 18.8537 7.72313 18.6437 8.56482L16.5932 18.2276C16.45 18.9143 16.0351 19.0785 15.4603 18.7613L12.3367 16.4536L10.8353 17.9135C10.8305 17.9181 10.8258 17.9227 10.8212 17.9273C10.6532 18.0908 10.5143 18.226 10.2103 18.226Z" fill="white"/>
</svg>
