<svg width="30" height="30" viewBox="0 0 30 30" fill="none" xmlns="http://www.w3.org/2000/svg">
<path fill-rule="evenodd" clip-rule="evenodd" d="M0 15C0 23.2843 6.71573 30 15 30C23.2843 30 30 23.2843 30 15C30 6.71573 23.2843 0 15 0C6.71573 0 0 6.71573 0 15ZM24.4138 14.4259C24.4119 19.3427 20.4122 23.3433 15.4944 23.3453H15.4907C13.9979 23.3448 12.5311 22.9703 11.2283 22.2597L6.5 23.5L7.76538 18.878C6.98483 17.5253 6.57411 15.9909 6.57478 14.4189C6.57674 9.50106 10.578 5.5 15.4943 5.5C17.8804 5.50103 20.1199 6.42992 21.8039 8.11588C23.4879 9.80176 24.4148 12.0427 24.4138 14.4259Z" fill="white"/>
<path fill-rule="evenodd" clip-rule="evenodd" d="M8.63894 21.3823L11.4448 20.6462L11.7155 20.8069C12.8538 21.4823 14.1585 21.8397 15.4888 21.8403H15.4918C19.5779 21.8403 22.9036 18.5145 22.9052 14.4267C22.906 12.4458 22.1356 10.5832 20.7359 9.18191C19.3363 7.7806 17.4749 7.0085 15.4947 7.00781C11.4055 7.00781 8.07975 10.3332 8.07813 14.4207C8.07755 15.8215 8.4695 17.1857 9.2116 18.3661L9.38787 18.6466L8.63894 21.3823ZM19.6815 16.3472C19.8369 16.4223 19.9419 16.4731 19.9867 16.5479C20.0424 16.6408 20.0424 17.087 19.8568 17.6077C19.671 18.1283 18.7807 18.6034 18.3524 18.6674C17.9685 18.7248 17.4826 18.7487 16.9487 18.5791C16.625 18.4764 16.2099 18.3393 15.6782 18.1096C13.5888 17.2074 12.1769 15.1824 11.91 14.7997C11.8913 14.7729 11.8783 14.7541 11.871 14.7444L11.8692 14.742C11.7512 14.5846 10.9609 13.5302 10.9609 12.4389C10.9609 11.4123 11.4652 10.8743 11.6973 10.6266C11.7132 10.6096 11.7279 10.594 11.741 10.5797C11.9452 10.3566 12.1867 10.3008 12.3353 10.3008C12.4838 10.3008 12.6326 10.3022 12.7624 10.3087C12.7784 10.3095 12.7951 10.3094 12.8123 10.3093C12.9422 10.3085 13.1041 10.3076 13.2639 10.6912C13.3253 10.8389 13.4152 11.0578 13.5101 11.2887C13.7018 11.7556 13.9137 12.2714 13.951 12.3461C14.0067 12.4576 14.0439 12.5877 13.9696 12.7365C13.9584 12.7588 13.9481 12.7799 13.9383 12.8C13.8825 12.9139 13.8414 12.9977 13.7467 13.1083C13.7095 13.1518 13.671 13.1986 13.6325 13.2455C13.5558 13.3389 13.4792 13.4323 13.4124 13.4988C13.3008 13.6099 13.1847 13.7305 13.3147 13.9536C13.4447 14.1767 13.892 14.9065 14.5545 15.4975C15.2667 16.1327 15.8857 16.4012 16.1995 16.5373C16.2607 16.5639 16.3104 16.5854 16.3468 16.6037C16.5696 16.7153 16.6996 16.6966 16.8296 16.5479C16.9596 16.3992 17.3867 15.8971 17.5353 15.674C17.6838 15.451 17.8325 15.4881 18.0367 15.5625C18.241 15.6369 19.3367 16.176 19.5596 16.2876C19.6031 16.3093 19.6438 16.329 19.6815 16.3472Z" fill="white"/>
</svg>
