<svg width="24" height="24" viewBox="0 0 24 24" fill="none" xmlns="http://www.w3.org/2000/svg">
<g clip-path="url(#clip0_550_13167)">
<path d="M7.65108 1.0247C6.79952 1.16533 6.09248 1.85283 5.90889 2.71611C5.79561 3.25517 5.9128 3.59892 6.26436 3.7708C6.70967 3.98564 7.19405 3.71611 7.27998 3.20439C7.33467 2.86455 7.3503 2.82158 7.46358 2.69267C7.70186 2.42314 7.12373 2.44267 14.4323 2.44267H21.0573L21.2136 2.52861C21.2995 2.57939 21.4128 2.68877 21.4636 2.77861L21.5573 2.93877V9.56767C21.5573 15.2786 21.5495 16.2122 21.5026 16.306C21.4128 16.4778 21.1862 16.6536 21.0222 16.681C20.6901 16.7356 20.6355 16.7513 20.5026 16.8255C20.1862 16.9974 20.0651 17.3997 20.2292 17.7356C20.4011 18.0872 20.7448 18.2044 21.2839 18.0911C21.6745 18.0091 21.9948 17.845 22.2878 17.5833C22.5651 17.3294 22.7409 17.0716 22.8815 16.7083L22.9831 16.4466L22.9948 9.72783C23.0026 4.97392 22.9948 2.93486 22.9636 2.75517C22.823 1.93486 22.0847 1.18877 21.2683 1.04033C21.1081 1.00908 18.9831 0.99736 14.3933 1.00127C10.737 1.00517 7.70577 1.01689 7.65108 1.0247Z" fill="#040821" stroke="#040821" stroke-width="0.5"/>
<path d="M2.87509 6.58984C2.18368 6.67578 1.53915 7.125 1.23837 7.74219C0.988367 8.24609 1.00009 7.86328 1.00009 14.7578C1.00009 19.0664 1.0118 21.1016 1.04305 21.2617C1.18759 22.0664 1.92977 22.8086 2.73446 22.9531C2.89462 22.9844 4.92977 22.9961 9.23837 22.9961C14.711 22.9961 15.5431 22.9883 15.7618 22.9375C16.5274 22.7539 17.1173 22.1914 17.3556 21.4141C17.422 21.1914 17.4259 20.8828 17.4259 14.7734V8.36719L17.336 8.09375C17.2149 7.73047 17.086 7.51562 16.8282 7.24609C16.5626 6.96875 16.3204 6.80859 15.9532 6.67578L15.6681 6.57031L9.39852 6.56641C5.9493 6.5625 3.01571 6.57422 2.87509 6.58984ZM15.6016 8.07812C15.7032 8.12891 15.8126 8.22656 15.8751 8.32031L15.9806 8.48047L15.9923 14.6914C16.0001 19.0273 15.9923 20.9492 15.961 21.0508C15.9063 21.2383 15.7462 21.4297 15.5821 21.4961C15.4766 21.543 14.3946 21.5508 9.1993 21.5508H2.94149L2.78134 21.457C2.69149 21.4062 2.58212 21.293 2.53134 21.207L2.4454 21.0508V14.8008C2.4454 10.4648 2.45712 8.51562 2.48837 8.4375C2.54696 8.28125 2.67587 8.15234 2.85555 8.07031C3.00399 8 3.26962 7.99609 9.21884 7.99609H15.4298L15.6016 8.07812Z" fill="#040821" stroke="#040821" stroke-width="0.5"/>
</g>
<defs>
<clipPath id="clip0_550_13167">
<rect width="24" height="24" fill="white"/>
</clipPath>
</defs>
</svg>
