<svg width="20" height="23" viewBox="0 0 20 23" fill="none" xmlns="http://www.w3.org/2000/svg">
<g clip-path="url(#clip0_2202_2174)">
<path d="M11.1738 3.0019C11.1738 2.3536 10.6482 1.82808 9.99995 1.82811C9.35165 1.82814 8.82612 2.35371 8.82615 3.00201L11.1738 3.0019ZM9.17032 18.2161C9.62876 18.6745 10.372 18.6744 10.8304 18.216L18.3004 10.7453C18.7588 10.2869 18.7587 9.54366 18.3003 9.08527C17.8418 8.62688 17.0986 8.62691 16.6402 9.08535L10.0002 15.7259L3.35965 9.08596C2.90122 8.62757 2.15798 8.6276 1.69958 9.08604C1.24119 9.54448 1.24122 10.2877 1.69966 10.7461L9.17032 18.2161ZM8.82615 3.00201C8.82621 4.25894 8.82626 7.22645 8.82631 10.194C8.82636 13.1615 8.82641 16.1291 8.82647 17.3861L11.1742 17.386C11.1741 16.129 11.1741 13.1615 11.174 10.194C11.174 7.22643 11.1739 4.25887 11.1738 3.0019L8.82615 3.00201Z" fill="#040821"/>
</g>
<rect x="3" y="21" width="14.6667" height="2" rx="1" fill="#040821"/>
<defs>
<clipPath id="clip0_2202_2174">
<rect width="12.8842" height="13.0787" fill="white" transform="translate(10 0.714844) rotate(45)"/>
</clipPath>
</defs>
</svg>
