<svg width="25" height="17" viewBox="0 0 25 17" fill="none" xmlns="http://www.w3.org/2000/svg">
<path fill-rule="evenodd" clip-rule="evenodd" d="M24.0936 14.3187C24.0888 14.6465 23.9499 14.9587 23.7076 15.1864C23.4653 15.4141 23.1396 15.5384 22.8026 15.532L14.1335 15.366C13.4336 15.3526 12.8769 14.7901 12.89 14.1097C12.9031 13.4292 13.4811 12.8885 14.181 12.9019L19.5169 13.0041L13.7299 5.96245L8.16286 10.2112C7.62093 10.6248 6.84753 10.5279 6.4244 9.99337L0.703553 2.76638C0.27507 2.22509 0.366519 1.43894 0.907808 1.01046C1.4491 0.581975 2.23525 0.673423 2.66374 1.21471L7.62236 7.47881L13.1717 3.24358C13.7065 2.83537 14.4686 2.92378 14.8958 3.44359L21.5985 11.5994L21.6831 5.85208C21.6931 5.17158 22.2686 4.62835 22.9685 4.63875C23.6685 4.64914 24.2277 5.20921 24.2177 5.88971L24.0936 14.3187Z" fill="#C91355"/>
</svg>
