<svg width="17" height="11" viewBox="0 0 17 11" fill="none" xmlns="http://www.w3.org/2000/svg">
<path fill-rule="evenodd" clip-rule="evenodd" d="M16.5348 1.26375C16.531 1.00157 16.4198 0.75178 16.226 0.569635C16.0322 0.38749 15.7716 0.287997 15.502 0.29316L9.607 0.40603C9.0471 0.416751 8.60171 0.866729 8.6122 1.41108C8.62269 1.95544 9.08509 2.38804 9.64499 2.37732L12.9501 2.31403L9.31201 6.74082L5.64144 3.93945C5.2079 3.60857 4.58918 3.68609 4.25068 4.11372L0.360498 9.02807C0.0177126 9.4611 0.0908712 10.09 0.523903 10.4328C0.956934 10.7756 1.58586 10.7024 1.92864 10.2694L5.20904 6.12537L8.86543 8.91591C9.29332 9.24248 9.90294 9.17176 10.2447 8.7559L14.54 3.52941L14.5915 7.0256C14.5995 7.57 15.0599 8.00458 15.6199 7.99627C16.1798 7.98796 16.6272 7.5399 16.6192 6.9955L16.5348 1.26375Z" fill="#13C930"/>
</svg>
