<svg width="29" height="29" viewBox="0 0 29 29" fill="none" xmlns="http://www.w3.org/2000/svg">
<g clip-path="url(#clip0_243_1712)">
<path d="M13.6586 0.138573C12.755 0.179974 11.9317 0.33331 11.0909 0.617749C9.22948 1.24643 7.5378 2.51681 6.23062 4.26714C4.77208 6.22065 3.82496 8.67709 3.48479 11.3896C3.35636 12.4101 3.31509 13.5478 3.37394 14.418C3.48326 16.0326 3.90216 17.6994 4.62303 19.3822C5.5304 21.5014 6.85822 23.5331 8.47497 25.278C8.64086 25.4566 9.25393 26.0684 9.42363 26.2241C11.0542 27.7222 12.6037 28.5939 13.8168 28.6974C13.9735 28.7112 14.2793 28.7036 14.4291 28.6829C15.562 28.5249 16.9525 27.7598 18.4095 26.4932C18.9385 26.034 19.5347 25.4413 20.05 24.8641C20.9765 23.8259 21.8296 22.6499 22.5359 21.4354C23.8736 19.1385 24.6663 16.7649 24.8375 14.5445C24.8652 14.1865 24.869 14.0753 24.869 13.5631C24.8682 12.9544 24.8559 12.6493 24.8078 12.0873C24.5998 9.67149 23.8852 7.38295 22.74 5.467C22.2944 4.72103 21.822 4.08007 21.2577 3.45447C21.1094 3.29039 20.6806 2.8603 20.5193 2.71308C19.0837 1.4082 17.4372 0.580948 15.6514 0.268909C15.3143 0.209875 14.9757 0.170772 14.5874 0.146239C14.4215 0.135505 13.8329 0.130906 13.6586 0.138573ZM14.381 2.32362C15.2211 2.36808 16.0184 2.55362 16.8042 2.88866C16.9876 2.96686 17.3057 3.12173 17.4845 3.22063C18.4967 3.77724 19.4224 4.58379 20.1899 5.5774C21.5307 7.31241 22.3684 9.53884 22.6177 12.0298C22.6674 12.5289 22.6865 12.8869 22.6919 13.429C22.6971 13.9641 22.6849 14.2463 22.636 14.694C22.4091 16.7856 21.5237 19.0671 20.1065 21.2184C18.8628 23.1052 17.2766 24.7735 15.7898 25.7595C15.1454 26.1866 14.504 26.478 14.1211 26.5194C13.7503 26.5584 12.9698 26.2127 12.1763 25.6568C11.3538 25.0794 10.4778 24.2722 9.66826 23.3421C9.01544 22.5931 8.39854 21.756 7.86267 20.8926C6.53638 18.7558 5.73068 16.4988 5.56022 14.4448C5.51893 13.9519 5.51512 13.3163 5.54875 12.7198C5.64812 10.9595 6.00511 9.36634 6.62506 7.91349C7.73043 5.3267 9.60863 3.44526 11.8469 2.68241C12.4378 2.48155 13.0784 2.35735 13.6968 2.32439C13.8696 2.31518 14.2136 2.31518 14.381 2.32362Z" fill="white"/>
<mask id="mask0_243_1712" style="mask-type:luminance" maskUnits="userSpaceOnUse" x="0" y="5" width="10" height="9">
<path d="M9.83764 5.34375H0V13.8054H9.83764V5.34375Z" fill="white"/>
</mask>
<g mask="url(#mask0_243_1712)">
<path d="M5.40921 5.51275C4.73157 6.67853 4.20186 8.00527 3.85788 9.39064C3.52423 10.7358 3.34766 12.174 3.34766 13.549V13.8054H4.43462H5.52271L5.5296 13.3363C5.57202 10.607 6.28175 8.10645 7.5728 6.14278C7.71612 5.92549 7.86746 5.71394 8.00735 5.53345C8.07042 5.45182 8.13003 5.37593 8.13807 5.36444C8.15296 5.3449 8.10137 5.34375 6.82981 5.34375H5.50781L5.40921 5.51275Z" fill="url(#paint0_linear_243_1712)"/>
</g>
<mask id="mask1_243_1712" style="mask-type:luminance" maskUnits="userSpaceOnUse" x="18" y="5" width="11" height="9">
<path d="M28.1936 5.34375H18.3789V13.8054H28.1936V5.34375Z" fill="white"/>
</mask>
<g mask="url(#mask1_243_1712)">
<path d="M20.0579 5.40928C20.0865 5.44608 20.1851 5.57369 20.2745 5.6944C21.2251 6.9556 21.9267 8.50423 22.3155 10.1954C22.4932 10.9715 22.6056 11.7486 22.6663 12.627C22.6733 12.7213 22.6823 13.0259 22.6858 13.3019L22.6926 13.8054H23.7797H24.8678V13.4858C24.8667 10.6541 24.1214 7.81328 22.7844 5.54724L22.6641 5.34375H21.3341H20.0039L20.0579 5.40928Z" fill="url(#paint1_linear_243_1712)"/>
</g>
<mask id="mask2_243_1712" style="mask-type:luminance" maskUnits="userSpaceOnUse" x="0" y="13" width="10" height="8">
<path d="M9.83764 13.8047H0V20.8293H9.83764V13.8047Z" fill="white"/>
</mask>
<g mask="url(#mask2_243_1712)">
<path d="M3.34766 13.8357C3.34766 13.8541 3.35339 13.984 3.35912 14.1266C3.44053 15.9512 3.91062 17.8079 4.77974 19.7371C4.84394 19.8796 4.98955 20.1831 5.10421 20.4119L5.31059 20.8293H6.5661C7.25635 20.8293 7.81817 20.8257 7.81587 20.82C7.81244 20.8154 7.75625 20.7211 7.6909 20.6108C6.38609 18.4195 5.63967 16.1558 5.53762 14.0864C5.53189 13.9599 5.52616 13.8449 5.52616 13.83V13.8047H4.43691H3.34766V13.8357Z" fill="url(#paint2_linear_243_1712)"/>
</g>
<mask id="mask3_243_1712" style="mask-type:luminance" maskUnits="userSpaceOnUse" x="18" y="13" width="11" height="8">
<path d="M28.1936 13.8047H18.3789V20.8293H28.1936V13.8047Z" fill="white"/>
</mask>
<g mask="url(#mask3_243_1712)">
<path d="M22.6874 14.0208C22.6749 14.3876 22.6312 14.8141 22.5589 15.259C22.2793 16.9893 21.5661 18.8345 20.4871 20.6143C20.4195 20.7281 20.3633 20.8224 20.3633 20.8246C20.3633 20.827 20.9274 20.8293 21.6177 20.8293H22.8721L22.8926 20.7971C22.927 20.7465 23.3215 19.9531 23.4131 19.7543C24.1367 18.1654 24.5874 16.6444 24.7765 15.1441C24.8246 14.7566 24.8694 14.1737 24.8694 13.9105V13.8047H23.7824H22.6942L22.6874 14.0208Z" fill="url(#paint3_linear_243_1712)"/>
</g>
<path d="M7.13443 9.28843C7.11761 9.28998 7.05951 9.29534 7.00447 9.29994C6.57864 9.33522 6.1062 9.48248 5.78358 9.67959C5.55271 9.82073 5.21098 10.083 4.93653 10.3308C4.81422 10.4412 4.62997 10.6214 4.68042 10.5816C4.83561 10.4581 4.99999 10.3799 5.19644 10.3377C5.28895 10.317 5.5397 10.317 5.63221 10.3369C5.73694 10.3599 5.83634 10.3944 5.92654 10.4389C6.09243 10.521 6.10696 10.534 6.7239 11.1514C7.03658 11.4636 7.29497 11.7244 7.29727 11.7305C7.30032 11.7374 7.36071 11.7957 7.43181 11.8609C7.66881 12.0779 7.91881 12.3234 8.16726 12.5826C8.44247 12.8702 8.49905 12.9323 8.55638 13.0037C8.61296 13.075 10.6694 15.1244 10.7421 15.1819C10.8613 15.277 11.1656 15.5562 11.5096 15.8867C11.8246 16.189 11.9431 16.294 12.138 16.4482C12.6892 16.8823 13.1724 17.081 13.7992 17.1308C13.9514 17.1423 14.4009 17.1355 14.5309 17.1192C15.0133 17.0579 15.3848 16.916 15.8053 16.6331C16.0621 16.4597 16.2747 16.2794 16.6714 15.8998C17.0613 15.5263 17.3106 15.2969 17.4543 15.1804C17.4986 15.1443 18.562 14.0897 18.562 14.0897C18.562 14.0897 19.7775 12.8265 20.0275 12.5627C20.3716 12.2006 20.7316 11.8501 20.8455 11.7665C20.8685 11.7489 21.1505 11.4728 21.4724 11.1514C21.9579 10.6667 22.0688 10.5593 22.1269 10.521C22.256 10.4335 22.3899 10.3752 22.5434 10.3407C22.6123 10.3254 22.6436 10.3231 22.7797 10.3231C22.9158 10.3231 22.9471 10.3254 23.0159 10.3407C23.1933 10.3806 23.3622 10.4604 23.4945 10.5662C23.5603 10.6191 23.3163 10.3814 23.1995 10.2786C22.7866 9.91735 22.4372 9.67192 22.162 9.54998C21.3548 9.19334 20.3502 9.19717 19.63 9.55994C19.484 9.63358 19.1942 9.87057 18.6438 10.3683C17.952 10.9934 17.2922 11.6262 16.2128 12.7007C15.2319 13.6771 14.4353 14.4395 14.1677 14.6573C14.1043 14.7094 14.0997 14.7102 14.0622 14.6841C13.8749 14.5545 13.0027 13.7185 11.6373 12.3594C10.5127 11.2404 9.40038 10.2027 8.84307 9.75399C8.68176 9.62361 8.6099 9.57759 8.4761 9.51853C8.22689 9.40808 7.95779 9.33676 7.66194 9.303C7.56178 9.2915 7.20246 9.28154 7.13443 9.28843Z" fill="white"/>
<path d="M13.9574 9.29344C13.5285 9.34789 13.1662 9.60484 12.9812 9.98678C12.6524 10.664 12.9942 11.4786 13.7074 11.7179C13.8534 11.7669 13.9582 11.7808 14.1355 11.7761C14.3435 11.7708 14.4551 11.7439 14.6378 11.6557C14.7609 11.5967 14.8549 11.5315 14.9528 11.4371C15.1844 11.2132 15.309 10.9547 15.3373 10.6349C15.358 10.4056 15.3121 10.1762 15.2012 9.96071C15.0231 9.61404 14.6982 9.37398 14.3114 9.30418C14.2342 9.29038 14.0308 9.28423 13.9574 9.29344Z" fill="white"/>
<path d="M1.02594 9.29987C0.80042 9.32134 0.656695 9.39113 0.488509 9.55987C0.275215 9.77385 0.135314 9.98325 0.0695686 10.1865C0.0244637 10.3253 0 10.5048 0 10.6958C0 11.0915 0.0779779 11.2587 0.457929 11.6767C0.652873 11.8907 1.86306 13.0972 2.72922 13.9416C3.23608 14.4355 3.90883 15.0967 4.22381 15.4111C4.99441 16.1796 5.19929 16.3621 5.56548 16.6023C6.02189 16.9021 6.43853 17.054 6.99125 17.1199C7.15868 17.1398 7.68465 17.1398 7.84366 17.1199C8.13264 17.0839 8.32681 17.0355 8.56227 16.9435C8.86348 16.8261 9.13412 16.6575 9.42614 16.4059C9.50566 16.3376 9.83897 16.0064 9.83897 15.9964C9.83897 15.9933 9.80304 16.0086 9.7587 16.0301C9.67078 16.0738 9.56605 16.1091 9.46437 16.1306C9.37264 16.1497 9.1364 16.1497 9.04085 16.1306C8.83138 16.0884 8.63108 15.9863 8.47818 15.8437C8.44302 15.8107 8.1074 15.4955 7.73281 15.1435C7.35821 14.7914 6.97979 14.4386 6.89111 14.3604C6.50886 14.0198 6.04482 13.5666 5.9011 13.3932C5.87891 13.3664 5.41334 12.8893 4.86521 12.3317C3.87825 11.3278 2.98763 10.4457 2.4846 9.97404C1.93568 9.45939 1.73845 9.33285 1.43571 9.29987C1.35162 9.29067 1.12151 9.29067 1.02594 9.29987Z" fill="white"/>
<path d="M26.7508 9.30044C26.4848 9.33265 26.2768 9.45996 25.8502 9.85112C25.3876 10.2753 24.3886 11.2593 23.5063 12.1605C23.0751 12.6015 22.6301 13.0548 22.5179 13.1691C22.4062 13.2826 22.297 13.3969 22.2763 13.4222C22.1539 13.5702 21.5874 14.1186 21.2717 14.3962C21.2236 14.4384 20.8414 14.7951 20.4231 15.1885C19.797 15.7776 19.6479 15.9141 19.583 15.9578C19.4545 16.0445 19.3192 16.102 19.1663 16.135C19.0624 16.1573 18.8345 16.1595 18.7305 16.1388C18.6373 16.1197 18.5188 16.0797 18.4423 16.0414L18.3789 16.0092L18.4018 16.0391C18.4378 16.0836 18.7283 16.3681 18.8016 16.4294C19.323 16.8675 19.8177 17.0753 20.4643 17.1305C20.5836 17.1404 20.9568 17.1404 21.0883 17.1305C21.761 17.0783 22.306 16.8659 22.8757 16.434C23.1401 16.2339 23.2816 16.1028 23.8779 15.5083C24.1661 15.2207 24.8159 14.5818 25.3227 14.0879C26.2379 13.1959 27.6697 11.7647 27.8196 11.5929C28.0642 11.3114 28.1544 11.1519 28.1858 10.9433C28.201 10.8405 28.201 10.5644 28.1858 10.4448C28.1475 10.1518 28.0329 9.88565 27.8577 9.68238C27.7324 9.53743 27.5474 9.41625 27.3578 9.35412C27.2279 9.31117 27.1391 9.29813 26.9663 9.29507C26.8799 9.29429 26.7837 9.2966 26.7508 9.30044Z" fill="white"/>
</g>
<defs>
<linearGradient id="paint0_linear_243_1712" x1="4.14453" y1="11.5923" x2="7.21867" y2="5.97157" gradientUnits="userSpaceOnUse">
<stop/>
<stop offset="1" stop-opacity="0"/>
</linearGradient>
<linearGradient id="paint1_linear_243_1712" x1="23.9677" y1="11.6383" x2="20.7731" y2="6.10426" gradientUnits="userSpaceOnUse">
<stop/>
<stop offset="1" stop-opacity="0"/>
</linearGradient>
<linearGradient id="paint2_linear_243_1712" x1="5.40003" y1="16.4893" x2="4.87556" y2="20.2943" gradientUnits="userSpaceOnUse">
<stop/>
<stop offset="1" stop-opacity="0"/>
</linearGradient>
<linearGradient id="paint3_linear_243_1712" x1="22.7941" y1="16.5754" x2="23.549" y2="20.2479" gradientUnits="userSpaceOnUse">
<stop/>
<stop offset="1" stop-opacity="0"/>
</linearGradient>
<clipPath id="clip0_243_1712">
<rect width="28.2674" height="28.8217" fill="white"/>
</clipPath>
</defs>
</svg>
