<svg width="150" height="150" viewBox="0 0 150 150" fill="none" xmlns="http://www.w3.org/2000/svg">
<g id="Iconly/Light/Paper">
<g id="Paper">
<path id="Stroke 1" fill-rule="evenodd" clip-rule="evenodd" d="M92.112 17.2619H50.5308C37.5308 17.2119 26.8745 27.5744 26.5683 40.5681V107.524C26.2808 120.731 36.7495 131.674 49.9558 131.968C50.1495 131.968 50.337 131.974 50.5308 131.968H100.462C113.55 131.437 123.862 120.624 123.768 107.524V50.2369L92.112 17.2619Z" stroke="white" stroke-width="3" stroke-linecap="round" stroke-linejoin="round"/>
<g id="Stroke 3">
<path fill-rule="evenodd" clip-rule="evenodd" d="M90.4688 17.1875V35.3687C90.4688 44.2437 97.6438 51.4375 106.519 51.4625H123.737" fill="white"/>
<path d="M90.4688 17.1875V35.3687C90.4688 44.2437 97.6438 51.4375 106.519 51.4625H123.737" stroke="white" stroke-width="3" stroke-linecap="round" stroke-linejoin="round"/>
</g>
<path id="Stroke 5" d="M89.2969 95.9902H55.5469" stroke="white" stroke-width="3" stroke-linecap="round" stroke-linejoin="round"/>
<path id="Stroke 7" d="M76.5219 72.5371H55.5469" stroke="white" stroke-width="3" stroke-linecap="round" stroke-linejoin="round"/>
</g>
</g>
</svg>
