<svg width="25" height="24" viewBox="0 0 25 24" fill="none" xmlns="http://www.w3.org/2000/svg">
<g clip-path="url(#clip0_0_1126)">
<path d="M3.77727 10.3281C2.94885 10.3282 2.27731 10.9998 2.27734 11.8282C2.27738 12.6566 2.94899 13.3282 3.77741 13.3281L3.77727 10.3281ZM23.2187 12.8883C23.8045 12.3025 23.8044 11.3528 23.2186 10.767L13.6722 1.22151C13.0864 0.63575 12.1367 0.635794 11.5509 1.22161C10.9651 1.80742 10.9652 2.75717 11.551 3.34293L20.0367 11.8278L11.5518 20.3135C10.966 20.8993 10.9661 21.8491 11.5519 22.4348C12.1377 23.0206 13.0875 23.0205 13.6732 22.4347L23.2187 12.8883ZM3.77741 13.3281C5.38358 13.3281 9.17561 13.328 12.9677 13.3279C16.7597 13.3279 20.5518 13.3278 22.1581 13.3277L22.1579 10.3277C20.5518 10.3278 16.7597 10.3279 12.9676 10.3279C9.17559 10.328 5.3835 10.3281 3.77727 10.3281L3.77741 13.3281Z" fill="#040821"/>
</g>
<defs>
<clipPath id="clip0_0_1126">
<rect width="16.464" height="16.7126" fill="white" transform="translate(0.855469 11.8242) rotate(-45)"/>
</clipPath>
</defs>
</svg>
